# xmcd
#
# Track frame offsets: 
#        150
#        19038
#        32981
#        49585
#        62104
#        77818
#        99216
#        117604
#        141178
#        163747
#        182365
#        199468
#        215451
#        246053
#        263442
#        281905
#
# Disc length: 4159 seconds
#
# Revision: 0
# Processed by: cddbd v1.5.2PL0 Copyright (c) Steve Scherf et al.
# Submitted via: ExactAudioCopy v0.95b4
#
DISCID=e5103d10
DTITLE=Eric Clapton - 1994-11-28 - Club Full Of Blues
DYEAR=1994
DGENRE=Blues
TTITLE0=Motherless Child
TTITLE1=Malted Milk
TTITLE2=How Long
TTITLE3=Kidman Blues
TTITLE4=County Jail
TTITLE5=44
TTITLE6=Blues All Day Long
TTITLE7=Going Away
TTITLE8=Standin' Round Crying
TTITLE9=Hoochie Coochie Man
TTITLE10=It Hurts Me Too
TTITLE11=Blues Before Sunrise
TTITLE12=Third Degree
TTITLE13=Reconsider Baby
TTITLE14=Sinner's Prayer
TTITLE15=Before You Accuse Me
EXTD=
EXTT0=
EXTT1=
EXTT2=
EXTT3=
EXTT4=
EXTT5=
EXTT6=
EXTT7=
EXTT8=
EXTT9=
EXTT10=
EXTT11=
EXTT12=
EXTT13=
EXTT14=
EXTT15=
PLAYORDER=
